<svg version="1.1" id="Layer_1" xmlns="http://www.w3.org/2000/svg" xmlns:xlink="http://www.w3.org/1999/xlink" x="0px" y="0px"
	 width="100%" viewBox="0 0 800 1024" enable-background="new 0 0 800 1024" xml:space="preserve">
<path fill="#000000" opacity="1.000000" stroke="none" 
	d="
M290.276184,579.273071 
	C270.025848,576.273376 255.490067,563.828918 252.135986,547.001282 
	C248.951218,531.023193 256.253693,517.224365 271.390900,511.208191 
	C274.700226,509.892944 275.944977,508.177094 275.908264,504.604584 
	C275.743927,488.610657 275.766083,472.613342 275.906708,456.618866 
	C275.940674,452.759857 275.009033,450.552032 270.654266,450.869598 
	C269.124817,450.981171 266.833679,451.107025 266.900085,448.715332 
	C266.967987,446.269653 269.246826,446.807678 270.783661,446.803741 
	C283.779877,446.770447 296.778381,446.676422 309.771576,446.885895 
	C314.965179,446.969635 320.028503,448.205292 324.377930,451.334503 
	C333.985229,458.246674 333.967743,471.063507 324.416443,478.015808 
	C320.929199,480.554138 316.836304,481.936310 312.457489,483.962708 
	C316.472321,486.585541 320.022095,488.683899 323.335815,491.105225 
	C344.759949,506.759857 351.631470,535.615051 338.225037,556.148254 
	C327.168518,573.082458 310.733215,580.117371 290.276184,579.273071 
M255.404037,542.161438 
	C256.206024,546.236267 256.910065,550.293457 258.772644,554.119141 
	C266.438965,569.865356 286.951874,577.602783 301.735382,574.996887 
	C320.755798,571.644165 336.245239,558.695435 340.090057,541.014832 
	C343.936218,523.328308 335.322174,503.875122 318.693237,492.778137 
	C309.049316,486.342560 298.420319,482.859955 286.837555,482.263458 
	C285.210358,482.179688 283.006042,482.294708 283.211548,479.941254 
	C283.409607,477.673004 285.598267,477.974274 287.197632,478.160736 
	C290.996735,478.603546 295.053864,478.521027 298.509674,479.898102 
	C308.072815,483.708832 315.388763,478.888214 322.483551,474.069153 
	C329.661591,469.193542 329.261108,459.699646 322.189087,454.639404 
	C318.387390,451.919189 314.032501,450.983612 309.429718,450.986603 
	C301.596802,450.991699 293.757385,451.189423 285.933502,450.926453 
	C281.602875,450.780914 280.068237,452.214905 280.145081,456.635223 
	C280.373810,469.797302 280.108154,482.967438 280.276459,496.131348 
	C280.344757,501.474213 278.345673,507.413269 284.623688,511.687836 
	C280.200867,513.255432 280.003479,516.267761 280.183777,519.575439 
	C280.346832,522.566589 280.256927,525.573730 280.216949,528.573059 
	C280.181244,531.250427 280.331238,533.700806 283.952240,533.754700 
	C285.015625,533.770508 285.942261,534.230347 285.933746,535.503235 
	C285.925201,536.780396 284.957733,537.229187 283.921326,537.242004 
	C279.924591,537.291443 275.925964,537.283447 271.929718,537.208008 
	C270.876587,537.188171 270.000977,536.656555 270.045380,535.375916 
	C270.080780,534.354675 270.793518,533.959534 271.668427,533.818176 
	C273.296600,533.555054 275.401733,533.649597 275.575165,531.496155 
	C276.023193,525.932800 276.183167,520.345764 275.445435,514.751038 
	C263.577972,516.600586 255.523254,527.538086 255.404037,542.161438 
z"/>
<path fill="#000000" opacity="1.000000" stroke="none" 
	d="
M380.448792,517.688232 
	C384.936584,501.950867 398.692261,498.525482 417.515320,508.090271 
	C419.318451,506.935730 421.063324,505.672394 422.945984,504.667145 
	C423.922791,504.145569 425.272400,503.749542 425.968353,505.213562 
	C426.565613,506.469879 426.070770,507.598694 424.872467,508.134888 
	C420.529602,510.078033 420.363068,513.853333 420.368988,517.813232 
	C420.390656,532.301880 420.526611,546.793152 420.296570,561.278320 
	C420.113159,572.829529 411.908112,580.259460 400.994354,579.271545 
	C394.624115,578.694885 388.537933,573.770874 387.477020,568.347473 
	C387.222290,567.045288 386.668579,565.590454 388.488708,565.026001 
	C389.846680,564.604858 390.506287,565.518921 391.143646,566.654541 
	C395.075348,573.660400 399.307556,576.377380 404.547211,575.396118 
	C411.054901,574.177429 415.941010,569.247375 416.410736,561.738647 
	C416.978485,552.663513 416.545288,543.525696 416.545288,533.635681 
	C406.462097,539.919373 396.710083,541.315247 387.265900,534.204468 
	C382.045105,530.273621 379.329926,524.881653 380.448792,517.688232 
M397.321320,506.570312 
	C388.699310,509.314240 384.375397,513.877563 384.292023,520.321106 
	C384.211792,526.518005 388.766327,532.057129 395.954559,534.143188 
	C399.862762,535.277344 403.846191,535.104431 407.713928,533.704773 
	C413.664124,531.551636 416.614105,527.491394 416.667328,521.433777 
	C416.733704,513.881042 414.242615,509.853424 407.955750,507.464813 
	C404.782562,506.259247 401.482697,506.044891 397.321320,506.570312 
z"/>
<path fill="#000000" opacity="1.000000" stroke="none" 
	d="
M503.469391,538.735962 
	C497.572693,539.308960 492.404938,538.325378 487.932587,535.031006 
	C480.841339,529.807617 481.302521,521.109314 488.974182,516.598267 
	C495.016449,513.045349 501.749481,512.522583 509.266785,513.303467 
	C506.330414,509.824219 503.283356,508.220459 499.399078,508.204437 
	C496.406036,508.192078 493.411957,508.174713 490.420898,508.079681 
	C489.048370,508.036072 487.639069,507.759399 487.646118,505.947632 
	C487.652008,504.431427 488.854584,504.042206 490.061005,503.993408 
	C501.869293,503.515808 508.656708,503.511810 515.802795,514.864441 
	C518.014587,518.378235 519.879822,522.110596 522.101013,525.617981 
	C524.153381,528.858948 526.441956,531.937622 530.442871,533.097046 
	C531.853577,533.505798 533.676880,533.981262 532.919556,536.030334 
	C532.230347,537.895081 530.375916,537.370422 529.019226,537.029724 
	C525.100525,536.045410 522.553772,533.154968 519.983032,529.466064 
	C515.632874,534.765930 510.506592,538.138672 503.469391,538.735962 
M515.793030,524.647400 
	C515.736633,521.789185 514.061340,519.969849 511.652313,518.961792 
	C504.482208,515.961548 497.328247,516.302490 490.712128,520.323975 
	C485.884125,523.258606 485.985870,528.340027 490.477844,531.771240 
	C496.421082,536.310974 508.224854,535.529541 513.642761,530.260315 
	C515.021179,528.919739 515.791931,527.346436 515.793030,524.647400 
z"/>
<path fill="#000000" opacity="1.000000" stroke="none" 
	d="
M473.246704,512.782471 
	C473.034912,514.799866 473.557404,516.952271 471.086700,516.991150 
	C469.004272,517.024048 469.037659,515.139587 468.945923,513.685303 
	C468.836121,511.944061 468.379120,510.542633 466.911591,509.375793 
	C459.744812,503.677307 445.428009,506.088684 440.568604,513.886169 
	C435.034485,522.766235 441.542633,533.389526 453.286072,534.675049 
	C459.393951,535.343628 464.813354,533.874756 469.450317,529.722107 
	C470.622559,528.672363 471.952087,526.837830 473.622406,528.631104 
	C475.350220,530.486084 473.210175,531.604248 472.162354,532.670288 
	C463.244263,541.743713 446.264099,540.853333 438.291290,530.947815 
	C431.934143,523.049622 433.783752,511.956390 442.586639,506.191345 
	C449.421661,501.715057 456.798370,501.025146 464.539856,503.626587 
	C465.854553,504.068390 467.288116,505.679779 468.653229,504.324951 
	C473.244904,499.767883 473.041290,503.674652 473.225861,506.833954 
	C473.332428,508.657776 473.248749,510.492706 473.246704,512.782471 
z"/>
<path fill="#000000" opacity="1.000000" stroke="none" 
	d="
M547.837402,514.228821 
	C547.963501,510.765350 547.902649,507.971130 543.721008,507.899872 
	C542.715332,507.882751 541.924316,507.013062 542.004211,505.813934 
	C542.083069,504.631439 542.910400,503.935669 543.959412,503.929993 
	C547.910645,503.908508 547.863831,501.269470 547.836792,498.437927 
	C547.773132,491.774384 547.733154,485.108521 547.842896,478.446259 
	C547.899109,475.031891 547.353577,472.153412 543.752686,470.722229 
	C542.635132,470.278046 541.622986,469.440582 542.154419,468.041168 
	C542.799927,466.341461 544.307434,466.641968 545.538757,467.112091 
	C550.158264,468.875763 552.141541,472.485809 552.180115,477.252319 
	C552.237976,484.415833 552.276733,491.580994 552.182678,498.743561 
	C552.142822,501.778839 552.535889,504.093445 556.401306,503.814758 
	C557.743958,503.717987 559.283813,503.956024 559.442932,505.680542 
	C559.638245,507.796997 557.902710,508.127289 556.403931,508.067169 
	C552.602539,507.914642 552.069946,510.131866 552.181824,513.196960 
	C552.309204,516.690796 552.258545,520.194458 552.179688,523.691528 
	C552.078369,528.186157 552.007751,532.571228 557.785889,533.835938 
	C558.917603,534.083679 559.336914,535.100891 558.901733,536.192139 
	C558.449585,537.325806 557.339417,537.248108 556.350586,537.253845 
	C552.281860,537.277283 548.312195,533.205322 547.984802,528.181580 
	C547.692749,523.701294 547.869202,519.190369 547.837402,514.228821 
z"/>
<path fill="#000000" opacity="1.000000" stroke="none" 
	d="
M363.924896,537.367310 
	C360.283783,537.348938 357.125549,537.351990 353.968292,537.296448 
	C352.778229,537.275452 351.435974,537.099304 351.385101,535.589722 
	C351.334961,534.102112 352.601837,533.588806 353.816681,533.753723 
	C359.520020,534.528137 359.946136,531.157471 359.720886,526.789978 
	C359.481537,522.148254 359.559143,517.481384 359.702911,512.831848 
	C359.794556,509.867310 359.119080,507.998688 355.654999,508.106537 
	C354.069305,508.155884 351.875977,508.151337 352.113434,505.739319 
	C352.336151,503.476501 354.504883,503.873932 356.090271,503.776031 
	C362.962646,503.351532 363.351257,503.740204 363.359985,510.765442 
	C363.367615,516.915344 363.477264,523.067749 363.330505,529.213989 
	C363.256531,532.312500 364.159912,533.914124 367.543915,533.734924 
	C369.040192,533.655762 371.532318,533.094849 371.609619,535.355469 
	C371.705139,538.148499 369.005798,537.077454 367.395813,537.326111 
	C366.421143,537.476685 365.405426,537.361328 363.924896,537.367310 
z"/>
<path fill="#000000" opacity="1.000000" stroke="none" 
	d="
M359.273529,491.278656 
	C364.743195,492.557587 366.511536,495.920441 363.728424,499.052338 
	C362.466919,500.471893 360.885498,501.401154 358.899567,500.791718 
	C356.827728,500.155914 355.478424,498.678436 355.275269,496.524414 
	C355.026306,493.884888 356.359894,492.143127 359.273529,491.278656 
z"/>
</svg>